<?xml version="1.0" encoding="utf-8" standalone="no"?>
<!DOCTYPE svg PUBLIC "-//W3C//DTD SVG 1.1//EN"
  "http://www.w3.org/Graphics/SVG/1.1/DTD/svg11.dtd">
<svg height="432pt" version="1.1" viewBox="0 0 864 432" width="864pt" xmlns="http://www.w3.org/2000/svg" xmlns:xlink="http://www.w3.org/1999/xlink">
 <metadata>
  <rdf:RDF xmlns:cc="http://creativecommons.org/ns#" xmlns:dc="http://purl.org/dc/elements/1.1/" xmlns:rdf="http://www.w3.org/1999/02/22-rdf-syntax-ns#">
   <cc:Work>
    <dc:type rdf:resource="http://purl.org/dc/dcmitype/StillImage"/>
    <dc:date>2025-02-11T15:54:00.432228</dc:date>
    <dc:format>image/svg+xml</dc:format>
    <dc:creator>
     <cc:Agent>
      <dc:title>Matplotlib v3.4.3, https://matplotlib.org/</dc:title>
     </cc:Agent>
    </dc:creator>
   </cc:Work>
  </rdf:RDF>
 </metadata>
 <defs>
  <style type="text/css">*{stroke-linecap:butt;stroke-linejoin:round;}</style>
 </defs>
 <g id="figure_1">
  <g id="patch_1">
   <path d="M 0 432 
L 864 432 
L 864 0 
L 0 0 
z
" style="fill:none;"/>
  </g>
  <g id="axes_1">
   <g id="patch_2">
    <path d="M 108 378 
L 409.621622 378 
L 409.621622 51.84 
L 108 51.84 
z
" style="fill:#ffffff;"/>
   </g>
   <g id="PathCollection_1">
    <defs>
     <path d="M 0 3 
C 0.795609 3 1.55874 2.683901 2.12132 2.12132 
C 2.683901 1.55874 3 0.795609 3 0 
C 3 -0.795609 2.683901 -1.55874 2.12132 -2.12132 
C 1.55874 -2.683901 0.795609 -3 0 -3 
C -0.795609 -3 -1.55874 -2.683901 -2.12132 -2.12132 
C -2.683901 -1.55874 -3 -0.795609 -3 0 
C -3 0.795609 -2.683901 1.55874 -2.12132 2.12132 
C -1.55874 2.683901 -0.795609 3 0 3 
z
" id="m5a6d35a625" style="stroke:#1f77b4;"/>
    </defs>
    <g clip-path="url(#pcdeb828a4e)">
     <use style="fill:#1f77b4;stroke:#1f77b4;" x="121.710074" xlink:href="#m5a6d35a625" y="217.459876"/>
     <use style="fill:#1f77b4;stroke:#1f77b4;" x="155.985258" xlink:href="#m5a6d35a625" y="271.871624"/>
     <use style="fill:#1f77b4;stroke:#1f77b4;" x="190.260442" xlink:href="#m5a6d35a625" y="279.084662"/>
     <use style="fill:#1f77b4;stroke:#1f77b4;" x="224.535627" xlink:href="#m5a6d35a625" y="256.886382"/>
     <use style="fill:#1f77b4;stroke:#1f77b4;" x="258.810811" xlink:href="#m5a6d35a625" y="237.839602"/>
     <use style="fill:#1f77b4;stroke:#1f77b4;" x="293.085995" xlink:href="#m5a6d35a625" y="266.798982"/>
     <use style="fill:#1f77b4;stroke:#1f77b4;" x="327.361179" xlink:href="#m5a6d35a625" y="286.750627"/>
     <use style="fill:#1f77b4;stroke:#1f77b4;" x="361.636364" xlink:href="#m5a6d35a625" y="327.939654"/>
     <use style="fill:#1f77b4;stroke:#1f77b4;" x="395.911548" xlink:href="#m5a6d35a625" y="363.174545"/>
    </g>
   </g>
   <g id="PathCollection_2">
    <defs>
     <path d="M 0 3 
C 0.795609 3 1.55874 2.683901 2.12132 2.12132 
C 2.683901 1.55874 3 0.795609 3 0 
C 3 -0.795609 2.683901 -1.55874 2.12132 -2.12132 
C 1.55874 -2.683901 0.795609 -3 0 -3 
C -0.795609 -3 -1.55874 -2.683901 -2.12132 -2.12132 
C -2.683901 -1.55874 -3 -0.795609 -3 0 
C -3 0.795609 -2.683901 1.55874 -2.12132 2.12132 
C -1.55874 2.683901 -0.795609 3 0 3 
z
" id="m16102f3196" style="stroke:#ff7f0e;"/>
    </defs>
    <g clip-path="url(#pcdeb828a4e)">
     <use style="fill:#ff7f0e;stroke:#ff7f0e;" x="121.710074" xlink:href="#m16102f3196" y="66.665455"/>
     <use style="fill:#ff7f0e;stroke:#ff7f0e;" x="155.985258" xlink:href="#m16102f3196" y="73.03195"/>
     <use style="fill:#ff7f0e;stroke:#ff7f0e;" x="190.260442" xlink:href="#m16102f3196" y="127.749987"/>
     <use style="fill:#ff7f0e;stroke:#ff7f0e;" x="224.535627" xlink:href="#m16102f3196" y="143.000093"/>
     <use style="fill:#ff7f0e;stroke:#ff7f0e;" x="258.810811" xlink:href="#m16102f3196" y="152.027898"/>
     <use style="fill:#ff7f0e;stroke:#ff7f0e;" x="293.085995" xlink:href="#m16102f3196" y="158.896794"/>
     <use style="fill:#ff7f0e;stroke:#ff7f0e;" x="327.361179" xlink:href="#m16102f3196" y="182.085493"/>
     <use style="fill:#ff7f0e;stroke:#ff7f0e;" x="361.636364" xlink:href="#m16102f3196" y="207.116731"/>
     <use style="fill:#ff7f0e;stroke:#ff7f0e;" x="395.911548" xlink:href="#m16102f3196" y="197.938686"/>
    </g>
   </g>
   <g id="matplotlib.axis_1">
    <g id="xtick_1">
     <g id="line2d_1">
      <defs>
       <path d="M 0 0 
L 0 3.5 
" id="m211ee4b729" style="stroke:#000000;stroke-width:0.8;"/>
      </defs>
      <g>
       <use style="stroke:#000000;stroke-width:0.8;" x="121.710074" xlink:href="#m211ee4b729" y="378"/>
      </g>
     </g>
     <g id="text_1">
      <!-- 0.0 -->
      <g transform="translate(108.210074 397.867188)scale(0.18 -0.18)">
       <defs>
        <path d="M 1600 4225 
Q 1250 4225 1012 3687 
Q 775 3150 775 2250 
Q 775 1300 1012 775 
Q 1250 250 1600 250 
Q 1975 250 2187 775 
Q 2400 1300 2400 2250 
Q 2400 3150 2200 3687 
Q 2000 4225 1600 4225 
z
M 1600 50 
Q 1050 50 675 625 
Q 300 1200 300 2250 
Q 300 3225 662 3825 
Q 1025 4425 1600 4425 
Q 2150 4425 2512 3850 
Q 2875 3275 2875 2250 
Q 2875 1225 2512 637 
Q 2150 50 1600 50 
z
" id="SimSun-30" transform="scale(0.015625)"/>
        <path d="M 800 25 
Q 650 25 537 125 
Q 425 225 425 400 
Q 425 575 537 675 
Q 650 775 800 775 
Q 950 775 1062 662 
Q 1175 550 1175 400 
Q 1175 225 1062 125 
Q 950 25 800 25 
z
" id="SimSun-2e" transform="scale(0.015625)"/>
       </defs>
       <use xlink:href="#SimSun-30"/>
       <use x="50" xlink:href="#SimSun-2e"/>
       <use x="100" xlink:href="#SimSun-30"/>
      </g>
     </g>
    </g>
    <g id="xtick_2">
     <g id="line2d_2">
      <g>
       <use style="stroke:#000000;stroke-width:0.8;" x="190.260442" xlink:href="#m211ee4b729" y="378"/>
      </g>
     </g>
     <g id="text_2">
      <!-- 0.5 -->
      <g transform="translate(176.760442 397.867188)scale(0.18 -0.18)">
       <defs>
        <path d="M 1725 2850 
Q 2200 2850 2500 2487 
Q 2800 2125 2800 1525 
Q 2800 850 2487 450 
Q 2175 50 1525 50 
Q 1075 50 725 312 
Q 375 575 375 950 
Q 375 1100 462 1212 
Q 550 1325 700 1325 
Q 850 1325 900 1225 
Q 950 1125 950 1050 
Q 950 900 875 825 
Q 800 725 800 625 
Q 800 425 1037 325 
Q 1275 225 1550 225 
Q 1950 225 2162 550 
Q 2375 875 2375 1475 
Q 2375 1975 2187 2287 
Q 2000 2600 1625 2600 
Q 1350 2600 1150 2500 
Q 950 2400 775 2075 
L 550 2100 
L 675 4375 
L 2725 4375 
L 2650 4000 
L 850 4000 
L 750 2350 
Q 1000 2700 1237 2775 
Q 1475 2850 1725 2850 
z
" id="SimSun-35" transform="scale(0.015625)"/>
       </defs>
       <use xlink:href="#SimSun-30"/>
       <use x="50" xlink:href="#SimSun-2e"/>
       <use x="100" xlink:href="#SimSun-35"/>
      </g>
     </g>
    </g>
    <g id="xtick_3">
     <g id="line2d_3">
      <g>
       <use style="stroke:#000000;stroke-width:0.8;" x="258.810811" xlink:href="#m211ee4b729" y="378"/>
      </g>
     </g>
     <g id="text_3">
      <!-- 1.0 -->
      <g transform="translate(245.310811 397.867188)scale(0.18 -0.18)">
       <defs>
        <path d="M 1825 4450 
L 1825 650 
Q 1825 450 1950 350 
Q 2075 250 2300 250 
L 2550 250 
L 2550 100 
L 725 100 
L 725 250 
L 950 250 
Q 1200 250 1312 350 
Q 1425 450 1425 650 
L 1425 3675 
Q 1425 3775 1362 3837 
Q 1300 3900 1175 3900 
L 725 3900 
L 725 4050 
L 950 4050 
Q 1250 4050 1437 4150 
Q 1625 4250 1725 4450 
L 1825 4450 
z
" id="SimSun-31" transform="scale(0.015625)"/>
       </defs>
       <use xlink:href="#SimSun-31"/>
       <use x="50" xlink:href="#SimSun-2e"/>
       <use x="100" xlink:href="#SimSun-30"/>
      </g>
     </g>
    </g>
    <g id="xtick_4">
     <g id="line2d_4">
      <g>
       <use style="stroke:#000000;stroke-width:0.8;" x="327.361179" xlink:href="#m211ee4b729" y="378"/>
      </g>
     </g>
     <g id="text_4">
      <!-- 1.5 -->
      <g transform="translate(313.861179 397.867188)scale(0.18 -0.18)">
       <use xlink:href="#SimSun-31"/>
       <use x="50" xlink:href="#SimSun-2e"/>
       <use x="100" xlink:href="#SimSun-35"/>
      </g>
     </g>
    </g>
    <g id="xtick_5">
     <g id="line2d_5">
      <g>
       <use style="stroke:#000000;stroke-width:0.8;" x="395.911548" xlink:href="#m211ee4b729" y="378"/>
      </g>
     </g>
     <g id="text_5">
      <!-- 2.0 -->
      <g transform="translate(382.411548 397.867188)scale(0.18 -0.18)">
       <defs>
        <path d="M 2325 3325 
Q 2325 3775 2125 4012 
Q 1925 4250 1525 4250 
Q 1225 4250 1012 4087 
Q 800 3925 800 3675 
Q 800 3525 900 3425 
Q 975 3325 975 3225 
Q 975 3100 912 3037 
Q 850 2975 725 2975 
Q 575 2975 487 3062 
Q 400 3150 400 3350 
Q 400 3875 775 4150 
Q 1150 4425 1575 4425 
Q 2175 4425 2462 4125 
Q 2750 3825 2750 3375 
Q 2750 3075 2612 2775 
Q 2475 2475 2175 2200 
Q 1450 1500 1062 1062 
Q 675 625 600 475 
L 2075 475 
Q 2300 475 2450 650 
Q 2600 825 2650 1175 
L 2800 1175 
L 2650 100 
L 325 100 
L 325 425 
Q 450 650 737 1000 
Q 1025 1350 1500 1825 
Q 1925 2250 2125 2625 
Q 2325 3000 2325 3325 
z
" id="SimSun-32" transform="scale(0.015625)"/>
       </defs>
       <use xlink:href="#SimSun-32"/>
       <use x="50" xlink:href="#SimSun-2e"/>
       <use x="100" xlink:href="#SimSun-30"/>
      </g>
     </g>
    </g>
    <g id="text_6">
     <!-- $\mathit{k}$ Value -->
     <g transform="translate(226.590811 417.054688)scale(0.18 -0.18)">
      <defs>
       <path d="M 1172 4863 
L 1747 4863 
L 1197 2028 
L 3169 3500 
L 3916 3500 
L 1716 1825 
L 3322 0 
L 2625 0 
L 1131 1709 
L 800 0 
L 225 0 
L 1172 4863 
z
" id="DejaVuSans-Oblique-6b" transform="scale(0.015625)"/>
       <path d="M 0 0 
Q 0 0 0 0 
z
" id="SimSun-20" transform="scale(0.015625)"/>
       <path d="M 2125 4225 
L 2125 4375 
L 3025 4375 
L 3025 4225 
L 2925 4225 
Q 2825 4225 2737 4150 
Q 2650 4075 2600 3875 
L 1575 100 
L 1425 100 
L 500 3875 
Q 475 4050 412 4137 
Q 350 4225 225 4225 
L 100 4225 
L 100 4375 
L 1175 4375 
L 1175 4225 
L 1075 4225 
Q 950 4225 912 4150 
Q 875 4075 900 3950 
L 1600 1025 
L 1650 1025 
L 2400 3875 
Q 2425 3975 2425 4025 
Q 2425 4100 2387 4162 
Q 2350 4225 2200 4225 
L 2125 4225 
z
M 825 4225 
L 825 4225 
z
M 425 4225 
L 425 4225 
z
M 2700 4225 
L 2700 4225 
z
M 2500 4225 
L 2500 4225 
z
" id="SimSun-56" transform="scale(0.015625)"/>
       <path d="M 1225 75 
Q 775 75 525 287 
Q 275 500 275 775 
Q 275 1225 662 1512 
Q 1050 1800 2200 1925 
L 2200 2225 
Q 2200 2475 2087 2637 
Q 1975 2800 1575 2800 
Q 1150 2800 975 2662 
Q 800 2525 850 2375 
Q 875 2325 875 2275 
Q 875 2225 837 2150 
Q 800 2075 650 2075 
Q 550 2075 487 2137 
Q 425 2200 425 2325 
Q 425 2550 750 2750 
Q 1075 2950 1550 2950 
Q 2050 2950 2300 2762 
Q 2550 2575 2550 2225 
L 2550 575 
Q 2550 375 2587 337 
Q 2625 300 2725 300 
Q 2850 300 2900 412 
Q 2950 525 2950 725 
L 3075 725 
Q 3075 375 2950 237 
Q 2825 100 2625 100 
Q 2450 100 2350 175 
Q 2250 250 2200 425 
Q 1950 250 1737 162 
Q 1525 75 1225 75 
z
M 700 850 
Q 700 625 837 437 
Q 975 250 1275 250 
Q 1500 250 1725 337 
Q 1950 425 2200 600 
L 2200 1775 
Q 1350 1675 1025 1437 
Q 700 1200 700 850 
z
" id="SimSun-61" transform="scale(0.015625)"/>
       <path d="M 925 4375 
Q 1150 4375 1350 4425 
Q 1550 4475 1725 4575 
L 1775 4575 
L 1775 450 
Q 1775 350 1837 300 
Q 1900 250 2000 250 
L 2575 250 
L 2575 100 
L 625 100 
L 625 250 
L 1200 250 
Q 1325 250 1375 300 
Q 1425 350 1425 450 
L 1425 4025 
Q 1425 4125 1375 4175 
Q 1325 4225 1200 4225 
L 650 4225 
L 650 4375 
L 925 4375 
z
" id="SimSun-6c" transform="scale(0.015625)"/>
       <path d="M 1450 325 
Q 1750 325 1962 475 
Q 2175 625 2275 950 
L 2275 2525 
Q 2275 2625 2225 2687 
Q 2175 2750 2050 2750 
L 1900 2750 
L 1900 2900 
L 2050 2900 
Q 2200 2900 2325 2925 
Q 2450 2950 2575 3050 
L 2625 3050 
L 2625 600 
Q 2625 500 2687 450 
Q 2750 400 2850 400 
L 3000 400 
L 3000 250 
L 2850 250 
Q 2725 250 2600 212 
Q 2475 175 2325 100 
L 2275 100 
L 2275 625 
Q 2150 350 1900 212 
Q 1650 75 1325 75 
Q 925 75 725 300 
Q 525 525 525 1025 
L 525 2525 
Q 525 2625 475 2687 
Q 425 2750 300 2750 
L 150 2750 
L 150 2900 
L 300 2900 
Q 450 2900 575 2925 
Q 700 2950 825 3050 
L 875 3050 
L 875 975 
Q 875 625 1025 475 
Q 1175 325 1450 325 
z
" id="SimSun-75" transform="scale(0.015625)"/>
       <path d="M 2400 1650 
Q 2425 2200 2212 2487 
Q 2000 2775 1650 2775 
Q 1275 2775 1037 2475 
Q 800 2175 800 1650 
L 2400 1650 
z
M 800 1500 
Q 800 825 1062 537 
Q 1325 250 1750 250 
Q 2075 250 2300 437 
Q 2525 625 2625 900 
L 2750 850 
Q 2675 575 2412 312 
Q 2150 50 1700 50 
Q 1125 50 762 425 
Q 400 800 400 1500 
Q 400 2125 762 2537 
Q 1125 2950 1650 2950 
Q 2125 2950 2475 2625 
Q 2825 2300 2825 1500 
L 800 1500 
z
" id="SimSun-65" transform="scale(0.015625)"/>
      </defs>
      <use transform="translate(0 0.015625)" xlink:href="#DejaVuSans-Oblique-6b"/>
      <use transform="translate(57.910156 0.015625)" xlink:href="#SimSun-20"/>
      <use transform="translate(107.910156 0.015625)" xlink:href="#SimSun-56"/>
      <use transform="translate(157.910156 0.015625)" xlink:href="#SimSun-61"/>
      <use transform="translate(207.910156 0.015625)" xlink:href="#SimSun-6c"/>
      <use transform="translate(257.910156 0.015625)" xlink:href="#SimSun-75"/>
      <use transform="translate(307.910156 0.015625)" xlink:href="#SimSun-65"/>
     </g>
    </g>
   </g>
   <g id="matplotlib.axis_2">
    <g id="ytick_1">
     <g id="line2d_6">
      <defs>
       <path d="M 0 0 
L -3.5 0 
" id="mce179ffe86" style="stroke:#000000;stroke-width:0.8;"/>
      </defs>
      <g>
       <use style="stroke:#000000;stroke-width:0.8;" x="108" xlink:href="#mce179ffe86" y="330.115288"/>
      </g>
     </g>
     <g id="text_7">
      <!-- 0.5 -->
      <g transform="translate(74 336.548881)scale(0.18 -0.18)">
       <use xlink:href="#SimSun-30"/>
       <use x="50" xlink:href="#SimSun-2e"/>
       <use x="100" xlink:href="#SimSun-35"/>
      </g>
     </g>
    </g>
    <g id="ytick_2">
     <g id="line2d_7">
      <g>
       <use style="stroke:#000000;stroke-width:0.8;" x="108" xlink:href="#mce179ffe86" y="263.438356"/>
      </g>
     </g>
     <g id="text_8">
      <!-- 1.0 -->
      <g transform="translate(74 269.871949)scale(0.18 -0.18)">
       <use xlink:href="#SimSun-31"/>
       <use x="50" xlink:href="#SimSun-2e"/>
       <use x="100" xlink:href="#SimSun-30"/>
      </g>
     </g>
    </g>
    <g id="ytick_3">
     <g id="line2d_8">
      <g>
       <use style="stroke:#000000;stroke-width:0.8;" x="108" xlink:href="#mce179ffe86" y="196.761424"/>
      </g>
     </g>
     <g id="text_9">
      <!-- 1.5 -->
      <g transform="translate(74 203.195017)scale(0.18 -0.18)">
       <use xlink:href="#SimSun-31"/>
       <use x="50" xlink:href="#SimSun-2e"/>
       <use x="100" xlink:href="#SimSun-35"/>
      </g>
     </g>
    </g>
    <g id="ytick_4">
     <g id="line2d_9">
      <g>
       <use style="stroke:#000000;stroke-width:0.8;" x="108" xlink:href="#mce179ffe86" y="130.084491"/>
      </g>
     </g>
     <g id="text_10">
      <!-- 2.0 -->
      <g transform="translate(74 136.518085)scale(0.18 -0.18)">
       <use xlink:href="#SimSun-32"/>
       <use x="50" xlink:href="#SimSun-2e"/>
       <use x="100" xlink:href="#SimSun-30"/>
      </g>
     </g>
    </g>
    <g id="ytick_5">
     <g id="line2d_10">
      <g>
       <use style="stroke:#000000;stroke-width:0.8;" x="108" xlink:href="#mce179ffe86" y="63.407559"/>
      </g>
     </g>
     <g id="text_11">
      <!-- 2.5 -->
      <g transform="translate(74 69.841153)scale(0.18 -0.18)">
       <use xlink:href="#SimSun-32"/>
       <use x="50" xlink:href="#SimSun-2e"/>
       <use x="100" xlink:href="#SimSun-35"/>
      </g>
     </g>
    </g>
    <g id="text_12">
     <!-- Annual rate of return(%) -->
     <g transform="translate(67.679688 322.92)rotate(-90)scale(0.18 -0.18)">
      <defs>
       <path d="M 2025 1700 
L 900 1700 
L 675 750 
Q 650 625 650 550 
Q 650 450 687 350 
Q 725 250 900 250 
L 975 250 
L 975 100 
L 50 100 
L 50 250 
L 125 250 
Q 225 250 300 312 
Q 375 375 400 525 
L 1375 4350 
L 1750 4475 
L 2700 525 
Q 2750 375 2825 312 
Q 2900 250 3000 250 
L 3075 250 
L 3075 100 
L 2000 100 
L 2000 250 
L 2100 250 
Q 2250 250 2275 312 
Q 2300 375 2300 425 
Q 2300 525 2275 600 
L 2025 1700 
z
M 325 250 
L 325 250 
z
M 575 250 
L 575 250 
z
M 2350 250 
L 2350 250 
z
M 2775 250 
L 2775 250 
z
M 1500 3925 
L 1475 3925 
L 950 1850 
L 2000 1850 
L 1500 3925 
z
" id="SimSun-41" transform="scale(0.015625)"/>
       <path d="M 200 100 
L 200 250 
L 325 250 
Q 450 250 500 300 
Q 550 350 550 450 
L 550 2600 
Q 550 2675 525 2712 
Q 500 2750 425 2750 
L 225 2750 
L 225 2900 
L 400 2900 
Q 525 2900 637 2925 
Q 750 2950 850 3025 
L 900 3025 
L 900 2450 
Q 1125 2700 1350 2825 
Q 1575 2950 1825 2950 
Q 2250 2950 2450 2725 
Q 2650 2500 2650 2050 
L 2650 450 
Q 2650 350 2712 300 
Q 2775 250 2875 250 
L 3000 250 
L 3000 100 
L 1950 100 
L 1950 250 
L 2075 250 
Q 2200 250 2250 300 
Q 2300 350 2300 450 
L 2300 2125 
Q 2300 2425 2175 2587 
Q 2050 2750 1800 2750 
Q 1575 2750 1337 2600 
Q 1100 2450 900 2175 
L 900 450 
Q 900 350 962 300 
Q 1025 250 1125 250 
L 1250 250 
L 1250 100 
L 200 100 
z
" id="SimSun-6e" transform="scale(0.015625)"/>
       <path d="M 1275 2125 
Q 1525 2525 1812 2737 
Q 2100 2950 2400 2950 
Q 2650 2950 2787 2837 
Q 2925 2725 2925 2575 
Q 2925 2450 2862 2375 
Q 2800 2300 2675 2300 
Q 2550 2300 2487 2375 
Q 2425 2450 2450 2575 
Q 2450 2650 2425 2700 
Q 2400 2750 2275 2750 
Q 2075 2750 1787 2500 
Q 1500 2250 1275 1800 
L 1275 450 
Q 1275 350 1337 300 
Q 1400 250 1500 250 
L 2050 250 
L 2050 100 
L 200 100 
L 200 250 
L 700 250 
Q 825 250 875 300 
Q 925 350 925 450 
L 925 2525 
Q 925 2625 875 2687 
Q 825 2750 700 2750 
L 225 2750 
L 225 2900 
L 425 2900 
Q 600 2900 837 2937 
Q 1075 2975 1200 3025 
L 1275 3025 
L 1275 2125 
z
" id="SimSun-72" transform="scale(0.015625)"/>
       <path d="M 1500 900 
Q 1500 550 1625 425 
Q 1750 300 2000 300 
Q 2250 300 2400 462 
Q 2550 625 2600 925 
L 2725 875 
Q 2675 525 2462 300 
Q 2250 75 1900 75 
Q 1525 75 1337 300 
Q 1150 525 1150 1000 
L 1150 2750 
L 400 2750 
L 400 2900 
L 600 2900 
Q 900 2900 1087 3087 
Q 1275 3275 1325 3675 
L 1350 3875 
L 1500 3875 
L 1500 2900 
L 2500 2900 
L 2500 2750 
L 1500 2750 
L 1500 900 
z
" id="SimSun-74" transform="scale(0.015625)"/>
       <path d="M 2900 1500 
Q 2900 875 2525 462 
Q 2150 50 1600 50 
Q 1025 50 662 475 
Q 300 900 300 1500 
Q 300 2050 662 2500 
Q 1025 2950 1600 2950 
Q 2200 2950 2550 2500 
Q 2900 2050 2900 1500 
z
M 700 1475 
Q 700 825 962 512 
Q 1225 200 1600 200 
Q 2025 200 2262 537 
Q 2500 875 2500 1475 
Q 2500 2125 2237 2462 
Q 1975 2800 1600 2800 
Q 1250 2800 975 2462 
Q 700 2125 700 1475 
z
" id="SimSun-6f" transform="scale(0.015625)"/>
       <path d="M 1125 3325 
Q 1125 3850 1450 4112 
Q 1775 4375 2175 4375 
Q 2600 4375 2812 4225 
Q 3025 4075 3025 3875 
Q 3025 3775 2975 3700 
Q 2925 3625 2775 3625 
Q 2675 3625 2612 3675 
Q 2550 3725 2550 3850 
Q 2550 3875 2575 3925 
Q 2575 3975 2575 4000 
Q 2575 4100 2500 4162 
Q 2425 4225 2150 4225 
Q 1850 4225 1662 4037 
Q 1475 3850 1475 3400 
L 1475 2900 
L 2525 2900 
L 2525 2750 
L 1475 2750 
L 1475 450 
Q 1475 350 1537 300 
Q 1600 250 1700 250 
L 2300 250 
L 2300 100 
L 475 100 
L 475 250 
L 900 250 
Q 1025 250 1075 300 
Q 1125 350 1125 450 
L 1125 2750 
L 350 2750 
L 350 2900 
L 1125 2900 
L 1125 3325 
z
" id="SimSun-66" transform="scale(0.015625)"/>
       <path d="M 2900 5025 
Q 2325 4425 2037 3737 
Q 1750 3050 1750 2300 
Q 1750 1525 2037 850 
Q 2325 175 2900 -425 
L 2775 -550 
Q 2075 75 1725 787 
Q 1375 1500 1375 2300 
Q 1375 3075 1725 3787 
Q 2075 4500 2775 5150 
L 2900 5025 
z
" id="SimSun-28" transform="scale(0.015625)"/>
       <path d="M 750 4250 
Q 600 4250 500 4050 
Q 400 3850 400 3300 
Q 400 2675 512 2487 
Q 625 2300 750 2300 
Q 925 2300 1012 2525 
Q 1100 2750 1100 3300 
Q 1100 3750 1037 4000 
Q 975 4250 750 4250 
z
M 1425 3275 
Q 1425 2825 1275 2487 
Q 1125 2150 750 2150 
Q 450 2150 262 2450 
Q 75 2750 75 3275 
Q 75 3825 275 4125 
Q 475 4425 750 4425 
Q 1050 4425 1237 4112 
Q 1425 3800 1425 3275 
z
M 2725 1200 
Q 2725 1625 2650 1900 
Q 2575 2175 2375 2175 
Q 2225 2175 2125 1937 
Q 2025 1700 2025 1200 
Q 2025 575 2137 400 
Q 2250 225 2375 225 
Q 2550 225 2637 437 
Q 2725 650 2725 1200 
z
M 3050 1175 
Q 3050 675 2875 362 
Q 2700 50 2375 50 
Q 2100 50 1900 362 
Q 1700 675 1700 1175 
Q 1700 1725 1900 2037 
Q 2100 2350 2375 2350 
Q 2675 2350 2862 2025 
Q 3050 1700 3050 1175 
z
M 2525 4350 
L 725 50 
L 575 125 
L 2350 4425 
L 2525 4350 
z
" id="SimSun-25" transform="scale(0.015625)"/>
       <path d="M 275 5025 
L 400 5150 
Q 1100 4500 1450 3787 
Q 1800 3075 1800 2300 
Q 1800 1500 1450 787 
Q 1100 75 400 -550 
L 275 -425 
Q 850 175 1137 850 
Q 1425 1525 1425 2300 
Q 1425 3050 1137 3737 
Q 850 4425 275 5025 
z
" id="SimSun-29" transform="scale(0.015625)"/>
      </defs>
      <use xlink:href="#SimSun-41"/>
      <use x="50" xlink:href="#SimSun-6e"/>
      <use x="100" xlink:href="#SimSun-6e"/>
      <use x="150" xlink:href="#SimSun-75"/>
      <use x="200" xlink:href="#SimSun-61"/>
      <use x="250" xlink:href="#SimSun-6c"/>
      <use x="300" xlink:href="#SimSun-20"/>
      <use x="350" xlink:href="#SimSun-72"/>
      <use x="400" xlink:href="#SimSun-61"/>
      <use x="450" xlink:href="#SimSun-74"/>
      <use x="500" xlink:href="#SimSun-65"/>
      <use x="550" xlink:href="#SimSun-20"/>
      <use x="600" xlink:href="#SimSun-6f"/>
      <use x="650" xlink:href="#SimSun-66"/>
      <use x="700" xlink:href="#SimSun-20"/>
      <use x="750" xlink:href="#SimSun-72"/>
      <use x="800" xlink:href="#SimSun-65"/>
      <use x="850" xlink:href="#SimSun-74"/>
      <use x="900" xlink:href="#SimSun-75"/>
      <use x="950" xlink:href="#SimSun-72"/>
      <use x="1000" xlink:href="#SimSun-6e"/>
      <use x="1050" xlink:href="#SimSun-28"/>
      <use x="1100" xlink:href="#SimSun-25"/>
      <use x="1150" xlink:href="#SimSun-29"/>
     </g>
    </g>
   </g>
   <g id="line2d_11">
    <path clip-path="url(#pcdeb828a4e)" d="M 121.710074 217.459876 
L 155.985258 271.871624 
" style="fill:none;stroke:#1f77b4;stroke-linecap:square;stroke-width:1.5;"/>
   </g>
   <g id="line2d_12">
    <path clip-path="url(#pcdeb828a4e)" d="M 155.985258 271.871624 
L 190.260442 279.084662 
" style="fill:none;stroke:#1f77b4;stroke-linecap:square;stroke-width:1.5;"/>
   </g>
   <g id="line2d_13">
    <path clip-path="url(#pcdeb828a4e)" d="M 190.260442 279.084662 
L 224.535627 256.886382 
" style="fill:none;stroke:#1f77b4;stroke-linecap:square;stroke-width:1.5;"/>
   </g>
   <g id="line2d_14">
    <path clip-path="url(#pcdeb828a4e)" d="M 224.535627 256.886382 
L 258.810811 237.839602 
" style="fill:none;stroke:#1f77b4;stroke-linecap:square;stroke-width:1.5;"/>
   </g>
   <g id="line2d_15">
    <path clip-path="url(#pcdeb828a4e)" d="M 258.810811 237.839602 
L 293.085995 266.798982 
" style="fill:none;stroke:#1f77b4;stroke-linecap:square;stroke-width:1.5;"/>
   </g>
   <g id="line2d_16">
    <path clip-path="url(#pcdeb828a4e)" d="M 293.085995 266.798982 
L 327.361179 286.750627 
" style="fill:none;stroke:#1f77b4;stroke-linecap:square;stroke-width:1.5;"/>
   </g>
   <g id="line2d_17">
    <path clip-path="url(#pcdeb828a4e)" d="M 327.361179 286.750627 
L 361.636364 327.939654 
" style="fill:none;stroke:#1f77b4;stroke-linecap:square;stroke-width:1.5;"/>
   </g>
   <g id="line2d_18">
    <path clip-path="url(#pcdeb828a4e)" d="M 361.636364 327.939654 
L 395.911548 363.174545 
" style="fill:none;stroke:#1f77b4;stroke-linecap:square;stroke-width:1.5;"/>
   </g>
   <g id="line2d_19">
    <path clip-path="url(#pcdeb828a4e)" d="M 121.710074 66.665455 
L 155.985258 73.03195 
" style="fill:none;stroke:#ff7f0e;stroke-linecap:square;stroke-width:1.5;"/>
   </g>
   <g id="line2d_20">
    <path clip-path="url(#pcdeb828a4e)" d="M 155.985258 73.03195 
L 190.260442 127.749987 
" style="fill:none;stroke:#ff7f0e;stroke-linecap:square;stroke-width:1.5;"/>
   </g>
   <g id="line2d_21">
    <path clip-path="url(#pcdeb828a4e)" d="M 190.260442 127.749987 
L 224.535627 143.000093 
" style="fill:none;stroke:#ff7f0e;stroke-linecap:square;stroke-width:1.5;"/>
   </g>
   <g id="line2d_22">
    <path clip-path="url(#pcdeb828a4e)" d="M 224.535627 143.000093 
L 258.810811 152.027898 
" style="fill:none;stroke:#ff7f0e;stroke-linecap:square;stroke-width:1.5;"/>
   </g>
   <g id="line2d_23">
    <path clip-path="url(#pcdeb828a4e)" d="M 258.810811 152.027898 
L 293.085995 158.896794 
" style="fill:none;stroke:#ff7f0e;stroke-linecap:square;stroke-width:1.5;"/>
   </g>
   <g id="line2d_24">
    <path clip-path="url(#pcdeb828a4e)" d="M 293.085995 158.896794 
L 327.361179 182.085493 
" style="fill:none;stroke:#ff7f0e;stroke-linecap:square;stroke-width:1.5;"/>
   </g>
   <g id="line2d_25">
    <path clip-path="url(#pcdeb828a4e)" d="M 327.361179 182.085493 
L 361.636364 207.116731 
" style="fill:none;stroke:#ff7f0e;stroke-linecap:square;stroke-width:1.5;"/>
   </g>
   <g id="line2d_26">
    <path clip-path="url(#pcdeb828a4e)" d="M 361.636364 207.116731 
L 395.911548 197.938686 
" style="fill:none;stroke:#ff7f0e;stroke-linecap:square;stroke-width:1.5;"/>
   </g>
   <g id="line2d_27">
    <path clip-path="url(#pcdeb828a4e)" d="M 108 278.645106 
L 409.621622 278.645106 
" style="fill:none;stroke:#1f77b4;stroke-dasharray:5.55,2.4;stroke-dashoffset:0;stroke-width:1.5;"/>
   </g>
   <g id="line2d_28">
    <path clip-path="url(#pcdeb828a4e)" d="M 108 145.390343 
L 409.621622 145.390343 
" style="fill:none;stroke:#ff7f0e;stroke-dasharray:5.55,2.4;stroke-dashoffset:0;stroke-width:1.5;"/>
   </g>
   <g id="patch_3">
    <path d="M 108 378 
L 108 51.84 
" style="fill:none;stroke:#000000;stroke-linecap:square;stroke-linejoin:miter;stroke-width:0.8;"/>
   </g>
   <g id="patch_4">
    <path d="M 409.621622 378 
L 409.621622 51.84 
" style="fill:none;stroke:#000000;stroke-linecap:square;stroke-linejoin:miter;stroke-width:0.8;"/>
   </g>
   <g id="patch_5">
    <path d="M 108 378 
L 409.621622 378 
" style="fill:none;stroke:#000000;stroke-linecap:square;stroke-linejoin:miter;stroke-width:0.8;"/>
   </g>
   <g id="patch_6">
    <path d="M 108 51.84 
L 409.621622 51.84 
" style="fill:none;stroke:#000000;stroke-linecap:square;stroke-linejoin:miter;stroke-width:0.8;"/>
   </g>
   <g id="text_13">
    <!-- SHSC -->
    <g transform="translate(240.810811 45.84)scale(0.18 -0.18)">
     <defs>
      <path d="M 1500 2150 
Q 825 2450 575 2675 
Q 325 2900 325 3375 
Q 325 3750 637 4087 
Q 950 4425 1525 4425 
Q 1775 4425 2000 4350 
Q 2225 4250 2325 4250 
Q 2400 4250 2462 4287 
Q 2525 4325 2575 4425 
L 2675 3400 
L 2550 3350 
Q 2325 3875 2087 4062 
Q 1850 4250 1475 4250 
Q 1000 4250 825 3987 
Q 650 3725 650 3425 
Q 650 3150 812 2987 
Q 975 2825 1700 2500 
Q 2300 2250 2562 1937 
Q 2825 1625 2825 1200 
Q 2825 750 2512 400 
Q 2200 50 1600 50 
Q 1350 50 1150 150 
Q 925 225 800 225 
Q 725 225 650 175 
Q 575 125 475 50 
L 275 1275 
L 425 1325 
Q 600 700 912 462 
Q 1225 225 1625 225 
Q 2050 225 2262 475 
Q 2475 725 2475 1200 
Q 2475 1450 2237 1687 
Q 2000 1925 1500 2150 
z
" id="SimSun-53" transform="scale(0.015625)"/>
      <path d="M 2725 450 
Q 2725 350 2787 300 
Q 2850 250 2950 250 
L 3075 250 
L 3075 100 
L 1975 100 
L 1975 250 
L 2100 250 
Q 2225 250 2275 300 
Q 2325 350 2325 450 
L 2325 2275 
L 850 2275 
L 850 450 
Q 850 350 912 300 
Q 975 250 1075 250 
L 1200 250 
L 1200 100 
L 100 100 
L 100 250 
L 225 250 
Q 350 250 400 300 
Q 450 350 450 450 
L 450 4025 
Q 450 4125 400 4175 
Q 350 4225 225 4225 
L 125 4225 
L 125 4375 
L 1175 4375 
L 1175 4225 
L 1075 4225 
Q 975 4225 912 4175 
Q 850 4125 850 4025 
L 850 2425 
L 2325 2425 
L 2325 4025 
Q 2325 4125 2275 4175 
Q 2225 4225 2100 4225 
L 2000 4225 
L 2000 4375 
L 3050 4375 
L 3050 4225 
L 2950 4225 
Q 2850 4225 2787 4175 
Q 2725 4125 2725 4025 
L 2725 450 
z
" id="SimSun-48" transform="scale(0.015625)"/>
      <path d="M 1725 50 
Q 1025 50 612 575 
Q 200 1100 200 2225 
Q 200 3175 637 3800 
Q 1075 4425 1825 4425 
Q 2000 4425 2175 4375 
Q 2350 4300 2475 4300 
Q 2575 4300 2637 4325 
Q 2700 4350 2750 4425 
L 2975 3325 
L 2825 3275 
Q 2675 3750 2425 4000 
Q 2175 4250 1775 4250 
Q 1250 4250 962 3675 
Q 675 3100 675 2250 
Q 675 1325 925 800 
Q 1175 275 1750 275 
Q 2150 275 2437 562 
Q 2725 850 2825 1325 
L 2975 1250 
Q 2850 725 2512 387 
Q 2175 50 1725 50 
z
" id="SimSun-43" transform="scale(0.015625)"/>
     </defs>
     <use xlink:href="#SimSun-53"/>
     <use x="50" xlink:href="#SimSun-48"/>
     <use x="100" xlink:href="#SimSun-53"/>
     <use x="150" xlink:href="#SimSun-43"/>
    </g>
   </g>
   <g id="legend_1">
    <g id="PathCollection_3">
     <g>
      <use style="fill:#1f77b4;stroke:#1f77b4;" x="262.021622" xlink:href="#m5a6d35a625" y="76.182188"/>
     </g>
    </g>
    <g id="text_14">
     <!-- Before SHSC -->
     <g transform="translate(294.421622 80.907188)scale(0.18 -0.18)">
      <defs>
       <path d="M 100 100 
L 100 250 
L 300 250 
Q 425 250 475 300 
Q 525 350 525 450 
L 525 4025 
Q 525 4125 475 4175 
Q 425 4225 300 4225 
L 150 4225 
L 150 4375 
L 1600 4375 
Q 2200 4375 2487 4137 
Q 2775 3900 2775 3400 
Q 2775 3050 2625 2825 
Q 2475 2600 2000 2425 
Q 2575 2250 2775 1925 
Q 2975 1600 2975 1200 
Q 2975 700 2625 400 
Q 2275 100 1675 100 
L 100 100 
z
M 1600 250 
Q 2025 250 2262 512 
Q 2500 775 2500 1250 
Q 2500 1800 2250 2062 
Q 2000 2325 1500 2325 
L 925 2325 
L 925 450 
Q 925 350 987 300 
Q 1050 250 1150 250 
L 1600 250 
z
M 2350 3400 
Q 2350 3850 2100 4037 
Q 1850 4225 1450 4225 
L 1150 4225 
Q 1050 4225 987 4175 
Q 925 4125 925 4025 
L 925 2475 
L 1575 2475 
Q 1850 2475 2100 2700 
Q 2350 2925 2350 3400 
z
" id="SimSun-42" transform="scale(0.015625)"/>
      </defs>
      <use xlink:href="#SimSun-42"/>
      <use x="50" xlink:href="#SimSun-65"/>
      <use x="100" xlink:href="#SimSun-66"/>
      <use x="150" xlink:href="#SimSun-6f"/>
      <use x="200" xlink:href="#SimSun-72"/>
      <use x="250" xlink:href="#SimSun-65"/>
      <use x="300" xlink:href="#SimSun-20"/>
      <use x="350" xlink:href="#SimSun-53"/>
      <use x="400" xlink:href="#SimSun-48"/>
      <use x="450" xlink:href="#SimSun-53"/>
      <use x="500" xlink:href="#SimSun-43"/>
     </g>
    </g>
    <g id="PathCollection_4">
     <g>
      <use style="fill:#ff7f0e;stroke:#ff7f0e;" x="262.021622" xlink:href="#m16102f3196" y="100.369688"/>
     </g>
    </g>
    <g id="text_15">
     <!-- After SHSC -->
     <g transform="translate(294.421622 105.094688)scale(0.18 -0.18)">
      <use xlink:href="#SimSun-41"/>
      <use x="50" xlink:href="#SimSun-66"/>
      <use x="100" xlink:href="#SimSun-74"/>
      <use x="150" xlink:href="#SimSun-65"/>
      <use x="200" xlink:href="#SimSun-72"/>
      <use x="250" xlink:href="#SimSun-20"/>
      <use x="300" xlink:href="#SimSun-53"/>
      <use x="350" xlink:href="#SimSun-48"/>
      <use x="400" xlink:href="#SimSun-53"/>
      <use x="450" xlink:href="#SimSun-43"/>
     </g>
    </g>
   </g>
  </g>
  <g id="axes_2">
   <g id="patch_7">
    <path d="M 475.978378 378 
L 777.6 378 
L 777.6 51.84 
L 475.978378 51.84 
z
" style="fill:#ffffff;"/>
   </g>
   <g id="PathCollection_5">
    <g clip-path="url(#p2ecd515302)">
     <use style="fill:#1f77b4;stroke:#1f77b4;" x="489.688452" xlink:href="#m5a6d35a625" y="262.200269"/>
     <use style="fill:#1f77b4;stroke:#1f77b4;" x="523.963636" xlink:href="#m5a6d35a625" y="345.450586"/>
     <use style="fill:#1f77b4;stroke:#1f77b4;" x="558.238821" xlink:href="#m5a6d35a625" y="292.953975"/>
     <use style="fill:#1f77b4;stroke:#1f77b4;" x="592.514005" xlink:href="#m5a6d35a625" y="280.675965"/>
     <use style="fill:#1f77b4;stroke:#1f77b4;" x="626.789189" xlink:href="#m5a6d35a625" y="254.602258"/>
     <use style="fill:#1f77b4;stroke:#1f77b4;" x="661.064373" xlink:href="#m5a6d35a625" y="248.826033"/>
     <use style="fill:#1f77b4;stroke:#1f77b4;" x="695.339558" xlink:href="#m5a6d35a625" y="291.164372"/>
     <use style="fill:#1f77b4;stroke:#1f77b4;" x="729.614742" xlink:href="#m5a6d35a625" y="324.591561"/>
     <use style="fill:#1f77b4;stroke:#1f77b4;" x="763.889926" xlink:href="#m5a6d35a625" y="363.174545"/>
    </g>
   </g>
   <g id="PathCollection_6">
    <g clip-path="url(#p2ecd515302)">
     <use style="fill:#ff7f0e;stroke:#ff7f0e;" x="489.688452" xlink:href="#m16102f3196" y="66.665455"/>
     <use style="fill:#ff7f0e;stroke:#ff7f0e;" x="523.963636" xlink:href="#m16102f3196" y="156.733953"/>
     <use style="fill:#ff7f0e;stroke:#ff7f0e;" x="558.238821" xlink:href="#m16102f3196" y="195.923937"/>
     <use style="fill:#ff7f0e;stroke:#ff7f0e;" x="592.514005" xlink:href="#m16102f3196" y="210.674707"/>
     <use style="fill:#ff7f0e;stroke:#ff7f0e;" x="626.789189" xlink:href="#m16102f3196" y="208.567033"/>
     <use style="fill:#ff7f0e;stroke:#ff7f0e;" x="661.064373" xlink:href="#m16102f3196" y="224.069644"/>
     <use style="fill:#ff7f0e;stroke:#ff7f0e;" x="695.339558" xlink:href="#m16102f3196" y="206.106987"/>
     <use style="fill:#ff7f0e;stroke:#ff7f0e;" x="729.614742" xlink:href="#m16102f3196" y="191.87142"/>
     <use style="fill:#ff7f0e;stroke:#ff7f0e;" x="763.889926" xlink:href="#m16102f3196" y="159.531369"/>
    </g>
   </g>
   <g id="matplotlib.axis_3">
    <g id="xtick_6">
     <g id="line2d_29">
      <g>
       <use style="stroke:#000000;stroke-width:0.8;" x="489.688452" xlink:href="#m211ee4b729" y="378"/>
      </g>
     </g>
     <g id="text_16">
      <!-- 0.0 -->
      <g transform="translate(476.188452 397.867188)scale(0.18 -0.18)">
       <use xlink:href="#SimSun-30"/>
       <use x="50" xlink:href="#SimSun-2e"/>
       <use x="100" xlink:href="#SimSun-30"/>
      </g>
     </g>
    </g>
    <g id="xtick_7">
     <g id="line2d_30">
      <g>
       <use style="stroke:#000000;stroke-width:0.8;" x="558.238821" xlink:href="#m211ee4b729" y="378"/>
      </g>
     </g>
     <g id="text_17">
      <!-- 0.5 -->
      <g transform="translate(544.738821 397.867188)scale(0.18 -0.18)">
       <use xlink:href="#SimSun-30"/>
       <use x="50" xlink:href="#SimSun-2e"/>
       <use x="100" xlink:href="#SimSun-35"/>
      </g>
     </g>
    </g>
    <g id="xtick_8">
     <g id="line2d_31">
      <g>
       <use style="stroke:#000000;stroke-width:0.8;" x="626.789189" xlink:href="#m211ee4b729" y="378"/>
      </g>
     </g>
     <g id="text_18">
      <!-- 1.0 -->
      <g transform="translate(613.289189 397.867188)scale(0.18 -0.18)">
       <use xlink:href="#SimSun-31"/>
       <use x="50" xlink:href="#SimSun-2e"/>
       <use x="100" xlink:href="#SimSun-30"/>
      </g>
     </g>
    </g>
    <g id="xtick_9">
     <g id="line2d_32">
      <g>
       <use style="stroke:#000000;stroke-width:0.8;" x="695.339558" xlink:href="#m211ee4b729" y="378"/>
      </g>
     </g>
     <g id="text_19">
      <!-- 1.5 -->
      <g transform="translate(681.839558 397.867188)scale(0.18 -0.18)">
       <use xlink:href="#SimSun-31"/>
       <use x="50" xlink:href="#SimSun-2e"/>
       <use x="100" xlink:href="#SimSun-35"/>
      </g>
     </g>
    </g>
    <g id="xtick_10">
     <g id="line2d_33">
      <g>
       <use style="stroke:#000000;stroke-width:0.8;" x="763.889926" xlink:href="#m211ee4b729" y="378"/>
      </g>
     </g>
     <g id="text_20">
      <!-- 2.0 -->
      <g transform="translate(750.389926 397.867188)scale(0.18 -0.18)">
       <use xlink:href="#SimSun-32"/>
       <use x="50" xlink:href="#SimSun-2e"/>
       <use x="100" xlink:href="#SimSun-30"/>
      </g>
     </g>
    </g>
    <g id="text_21">
     <!-- $\mathit{k}$ Value -->
     <g transform="translate(594.569189 417.054688)scale(0.18 -0.18)">
      <use transform="translate(0 0.015625)" xlink:href="#DejaVuSans-Oblique-6b"/>
      <use transform="translate(57.910156 0.015625)" xlink:href="#SimSun-20"/>
      <use transform="translate(107.910156 0.015625)" xlink:href="#SimSun-56"/>
      <use transform="translate(157.910156 0.015625)" xlink:href="#SimSun-61"/>
      <use transform="translate(207.910156 0.015625)" xlink:href="#SimSun-6c"/>
      <use transform="translate(257.910156 0.015625)" xlink:href="#SimSun-75"/>
      <use transform="translate(307.910156 0.015625)" xlink:href="#SimSun-65"/>
     </g>
    </g>
   </g>
   <g id="matplotlib.axis_4">
    <g id="ytick_6">
     <g id="line2d_34">
      <g>
       <use style="stroke:#000000;stroke-width:0.8;" x="475.978378" xlink:href="#mce179ffe86" y="374.881508"/>
      </g>
     </g>
     <g id="text_22">
      <!-- 1.5 -->
      <g transform="translate(441.978378 381.315101)scale(0.18 -0.18)">
       <use xlink:href="#SimSun-31"/>
       <use x="50" xlink:href="#SimSun-2e"/>
       <use x="100" xlink:href="#SimSun-35"/>
      </g>
     </g>
    </g>
    <g id="ytick_7">
     <g id="line2d_35">
      <g>
       <use style="stroke:#000000;stroke-width:0.8;" x="475.978378" xlink:href="#mce179ffe86" y="333.972574"/>
      </g>
     </g>
     <g id="text_23">
      <!-- 2.0 -->
      <g transform="translate(441.978378 340.406168)scale(0.18 -0.18)">
       <use xlink:href="#SimSun-32"/>
       <use x="50" xlink:href="#SimSun-2e"/>
       <use x="100" xlink:href="#SimSun-30"/>
      </g>
     </g>
    </g>
    <g id="ytick_8">
     <g id="line2d_36">
      <g>
       <use style="stroke:#000000;stroke-width:0.8;" x="475.978378" xlink:href="#mce179ffe86" y="293.06364"/>
      </g>
     </g>
     <g id="text_24">
      <!-- 2.5 -->
      <g transform="translate(441.978378 299.497234)scale(0.18 -0.18)">
       <use xlink:href="#SimSun-32"/>
       <use x="50" xlink:href="#SimSun-2e"/>
       <use x="100" xlink:href="#SimSun-35"/>
      </g>
     </g>
    </g>
    <g id="ytick_9">
     <g id="line2d_37">
      <g>
       <use style="stroke:#000000;stroke-width:0.8;" x="475.978378" xlink:href="#mce179ffe86" y="252.154707"/>
      </g>
     </g>
     <g id="text_25">
      <!-- 3.0 -->
      <g transform="translate(441.978378 258.588301)scale(0.18 -0.18)">
       <defs>
        <path d="M 2800 1250 
Q 2800 775 2450 412 
Q 2100 50 1475 50 
Q 1025 50 700 300 
Q 375 550 375 875 
Q 375 1025 475 1137 
Q 575 1250 675 1250 
Q 825 1250 887 1137 
Q 950 1025 950 950 
Q 950 825 900 750 
Q 850 650 850 575 
Q 850 425 1037 325 
Q 1225 225 1450 225 
Q 1900 225 2125 487 
Q 2350 750 2350 1300 
Q 2350 1750 2112 2025 
Q 1875 2300 1225 2300 
L 1225 2475 
Q 1725 2475 1962 2712 
Q 2200 2950 2200 3375 
Q 2200 3725 2012 3987 
Q 1825 4250 1425 4250 
Q 1250 4250 1050 4162 
Q 850 4075 850 3875 
Q 850 3675 900 3625 
Q 950 3575 950 3500 
Q 950 3375 900 3300 
Q 850 3225 725 3225 
Q 625 3225 537 3300 
Q 450 3375 450 3575 
Q 450 3950 775 4187 
Q 1100 4425 1525 4425 
Q 2025 4425 2325 4112 
Q 2625 3800 2625 3450 
Q 2625 3075 2437 2812 
Q 2250 2550 1850 2425 
Q 2400 2225 2600 1900 
Q 2800 1575 2800 1250 
z
" id="SimSun-33" transform="scale(0.015625)"/>
       </defs>
       <use xlink:href="#SimSun-33"/>
       <use x="50" xlink:href="#SimSun-2e"/>
       <use x="100" xlink:href="#SimSun-30"/>
      </g>
     </g>
    </g>
    <g id="ytick_10">
     <g id="line2d_38">
      <g>
       <use style="stroke:#000000;stroke-width:0.8;" x="475.978378" xlink:href="#mce179ffe86" y="211.245773"/>
      </g>
     </g>
     <g id="text_26">
      <!-- 3.5 -->
      <g transform="translate(441.978378 217.679367)scale(0.18 -0.18)">
       <use xlink:href="#SimSun-33"/>
       <use x="50" xlink:href="#SimSun-2e"/>
       <use x="100" xlink:href="#SimSun-35"/>
      </g>
     </g>
    </g>
    <g id="ytick_11">
     <g id="line2d_39">
      <g>
       <use style="stroke:#000000;stroke-width:0.8;" x="475.978378" xlink:href="#mce179ffe86" y="170.33684"/>
      </g>
     </g>
     <g id="text_27">
      <!-- 4.0 -->
      <g transform="translate(441.978378 176.770433)scale(0.18 -0.18)">
       <defs>
        <path d="M 2300 575 
Q 2300 400 2400 325 
Q 2500 250 2675 250 
L 2900 250 
L 2900 100 
L 1250 100 
L 1250 250 
L 1525 250 
Q 1725 250 1812 325 
Q 1900 400 1900 575 
L 1900 1400 
L 225 1400 
L 225 1525 
L 2050 4425 
L 2300 4425 
L 2300 1550 
L 2975 1550 
L 2975 1400 
L 2300 1400 
L 2300 575 
z
M 1875 3800 
L 450 1550 
L 1900 1550 
L 1900 3800 
L 1875 3800 
z
" id="SimSun-34" transform="scale(0.015625)"/>
       </defs>
       <use xlink:href="#SimSun-34"/>
       <use x="50" xlink:href="#SimSun-2e"/>
       <use x="100" xlink:href="#SimSun-30"/>
      </g>
     </g>
    </g>
    <g id="ytick_12">
     <g id="line2d_40">
      <g>
       <use style="stroke:#000000;stroke-width:0.8;" x="475.978378" xlink:href="#mce179ffe86" y="129.427906"/>
      </g>
     </g>
     <g id="text_28">
      <!-- 4.5 -->
      <g transform="translate(441.978378 135.8615)scale(0.18 -0.18)">
       <use xlink:href="#SimSun-34"/>
       <use x="50" xlink:href="#SimSun-2e"/>
       <use x="100" xlink:href="#SimSun-35"/>
      </g>
     </g>
    </g>
    <g id="ytick_13">
     <g id="line2d_41">
      <g>
       <use style="stroke:#000000;stroke-width:0.8;" x="475.978378" xlink:href="#mce179ffe86" y="88.518973"/>
      </g>
     </g>
     <g id="text_29">
      <!-- 5.0 -->
      <g transform="translate(441.978378 94.952566)scale(0.18 -0.18)">
       <use xlink:href="#SimSun-35"/>
       <use x="50" xlink:href="#SimSun-2e"/>
       <use x="100" xlink:href="#SimSun-30"/>
      </g>
     </g>
    </g>
    <g id="text_30">
     <!-- Annual rate of return(%) -->
     <g transform="translate(435.658066 322.92)rotate(-90)scale(0.18 -0.18)">
      <use xlink:href="#SimSun-41"/>
      <use x="50" xlink:href="#SimSun-6e"/>
      <use x="100" xlink:href="#SimSun-6e"/>
      <use x="150" xlink:href="#SimSun-75"/>
      <use x="200" xlink:href="#SimSun-61"/>
      <use x="250" xlink:href="#SimSun-6c"/>
      <use x="300" xlink:href="#SimSun-20"/>
      <use x="350" xlink:href="#SimSun-72"/>
      <use x="400" xlink:href="#SimSun-61"/>
      <use x="450" xlink:href="#SimSun-74"/>
      <use x="500" xlink:href="#SimSun-65"/>
      <use x="550" xlink:href="#SimSun-20"/>
      <use x="600" xlink:href="#SimSun-6f"/>
      <use x="650" xlink:href="#SimSun-66"/>
      <use x="700" xlink:href="#SimSun-20"/>
      <use x="750" xlink:href="#SimSun-72"/>
      <use x="800" xlink:href="#SimSun-65"/>
      <use x="850" xlink:href="#SimSun-74"/>
      <use x="900" xlink:href="#SimSun-75"/>
      <use x="950" xlink:href="#SimSun-72"/>
      <use x="1000" xlink:href="#SimSun-6e"/>
      <use x="1050" xlink:href="#SimSun-28"/>
      <use x="1100" xlink:href="#SimSun-25"/>
      <use x="1150" xlink:href="#SimSun-29"/>
     </g>
    </g>
   </g>
   <g id="line2d_42">
    <path clip-path="url(#p2ecd515302)" d="M 489.688452 262.200269 
L 523.963636 345.450586 
" style="fill:none;stroke:#1f77b4;stroke-linecap:square;stroke-width:1.5;"/>
   </g>
   <g id="line2d_43">
    <path clip-path="url(#p2ecd515302)" d="M 523.963636 345.450586 
L 558.238821 292.953975 
" style="fill:none;stroke:#1f77b4;stroke-linecap:square;stroke-width:1.5;"/>
   </g>
   <g id="line2d_44">
    <path clip-path="url(#p2ecd515302)" d="M 558.238821 292.953975 
L 592.514005 280.675965 
" style="fill:none;stroke:#1f77b4;stroke-linecap:square;stroke-width:1.5;"/>
   </g>
   <g id="line2d_45">
    <path clip-path="url(#p2ecd515302)" d="M 592.514005 280.675965 
L 626.789189 254.602258 
" style="fill:none;stroke:#1f77b4;stroke-linecap:square;stroke-width:1.5;"/>
   </g>
   <g id="line2d_46">
    <path clip-path="url(#p2ecd515302)" d="M 626.789189 254.602258 
L 661.064373 248.826033 
" style="fill:none;stroke:#1f77b4;stroke-linecap:square;stroke-width:1.5;"/>
   </g>
   <g id="line2d_47">
    <path clip-path="url(#p2ecd515302)" d="M 661.064373 248.826033 
L 695.339558 291.164372 
" style="fill:none;stroke:#1f77b4;stroke-linecap:square;stroke-width:1.5;"/>
   </g>
   <g id="line2d_48">
    <path clip-path="url(#p2ecd515302)" d="M 695.339558 291.164372 
L 729.614742 324.591561 
" style="fill:none;stroke:#1f77b4;stroke-linecap:square;stroke-width:1.5;"/>
   </g>
   <g id="line2d_49">
    <path clip-path="url(#p2ecd515302)" d="M 729.614742 324.591561 
L 763.889926 363.174545 
" style="fill:none;stroke:#1f77b4;stroke-linecap:square;stroke-width:1.5;"/>
   </g>
   <g id="line2d_50">
    <path clip-path="url(#p2ecd515302)" d="M 489.688452 66.665455 
L 523.963636 156.733953 
" style="fill:none;stroke:#ff7f0e;stroke-linecap:square;stroke-width:1.5;"/>
   </g>
   <g id="line2d_51">
    <path clip-path="url(#p2ecd515302)" d="M 523.963636 156.733953 
L 558.238821 195.923937 
" style="fill:none;stroke:#ff7f0e;stroke-linecap:square;stroke-width:1.5;"/>
   </g>
   <g id="line2d_52">
    <path clip-path="url(#p2ecd515302)" d="M 558.238821 195.923937 
L 592.514005 210.674707 
" style="fill:none;stroke:#ff7f0e;stroke-linecap:square;stroke-width:1.5;"/>
   </g>
   <g id="line2d_53">
    <path clip-path="url(#p2ecd515302)" d="M 592.514005 210.674707 
L 626.789189 208.567033 
" style="fill:none;stroke:#ff7f0e;stroke-linecap:square;stroke-width:1.5;"/>
   </g>
   <g id="line2d_54">
    <path clip-path="url(#p2ecd515302)" d="M 626.789189 208.567033 
L 661.064373 224.069644 
" style="fill:none;stroke:#ff7f0e;stroke-linecap:square;stroke-width:1.5;"/>
   </g>
   <g id="line2d_55">
    <path clip-path="url(#p2ecd515302)" d="M 661.064373 224.069644 
L 695.339558 206.106987 
" style="fill:none;stroke:#ff7f0e;stroke-linecap:square;stroke-width:1.5;"/>
   </g>
   <g id="line2d_56">
    <path clip-path="url(#p2ecd515302)" d="M 695.339558 206.106987 
L 729.614742 191.87142 
" style="fill:none;stroke:#ff7f0e;stroke-linecap:square;stroke-width:1.5;"/>
   </g>
   <g id="line2d_57">
    <path clip-path="url(#p2ecd515302)" d="M 729.614742 191.87142 
L 763.889926 159.531369 
" style="fill:none;stroke:#ff7f0e;stroke-linecap:square;stroke-width:1.5;"/>
   </g>
   <g id="line2d_58">
    <path clip-path="url(#p2ecd515302)" d="M 475.978378 295.959952 
L 777.6 295.959952 
" style="fill:none;stroke:#1f77b4;stroke-dasharray:5.55,2.4;stroke-dashoffset:0;stroke-width:1.5;"/>
   </g>
   <g id="line2d_59">
    <path clip-path="url(#p2ecd515302)" d="M 475.978378 180.016056 
L 777.6 180.016056 
" style="fill:none;stroke:#ff7f0e;stroke-dasharray:5.55,2.4;stroke-dashoffset:0;stroke-width:1.5;"/>
   </g>
   <g id="patch_8">
    <path d="M 475.978378 378 
L 475.978378 51.84 
" style="fill:none;stroke:#000000;stroke-linecap:square;stroke-linejoin:miter;stroke-width:0.8;"/>
   </g>
   <g id="patch_9">
    <path d="M 777.6 378 
L 777.6 51.84 
" style="fill:none;stroke:#000000;stroke-linecap:square;stroke-linejoin:miter;stroke-width:0.8;"/>
   </g>
   <g id="patch_10">
    <path d="M 475.978378 378 
L 777.6 378 
" style="fill:none;stroke:#000000;stroke-linecap:square;stroke-linejoin:miter;stroke-width:0.8;"/>
   </g>
   <g id="patch_11">
    <path d="M 475.978378 51.84 
L 777.6 51.84 
" style="fill:none;stroke:#000000;stroke-linecap:square;stroke-linejoin:miter;stroke-width:0.8;"/>
   </g>
   <g id="text_31">
    <!-- SZSC -->
    <g transform="translate(608.789189 45.84)scale(0.18 -0.18)">
     <defs>
      <path d="M 1800 250 
Q 2125 250 2362 462 
Q 2600 675 2750 1100 
L 2900 1075 
L 2625 100 
L 225 100 
L 2425 4225 
L 1550 4225 
Q 1225 4225 962 4037 
Q 700 3850 500 3475 
L 350 3525 
L 650 4375 
L 2925 4375 
L 725 250 
L 1800 250 
z
" id="SimSun-5a" transform="scale(0.015625)"/>
     </defs>
     <use xlink:href="#SimSun-53"/>
     <use x="50" xlink:href="#SimSun-5a"/>
     <use x="100" xlink:href="#SimSun-53"/>
     <use x="150" xlink:href="#SimSun-43"/>
    </g>
   </g>
   <g id="legend_2">
    <g id="PathCollection_7">
     <g>
      <use style="fill:#1f77b4;stroke:#1f77b4;" x="630" xlink:href="#m5a6d35a625" y="76.182188"/>
     </g>
    </g>
    <g id="text_32">
     <!-- Before SZSC -->
     <g transform="translate(662.4 80.907188)scale(0.18 -0.18)">
      <use xlink:href="#SimSun-42"/>
      <use x="50" xlink:href="#SimSun-65"/>
      <use x="100" xlink:href="#SimSun-66"/>
      <use x="150" xlink:href="#SimSun-6f"/>
      <use x="200" xlink:href="#SimSun-72"/>
      <use x="250" xlink:href="#SimSun-65"/>
      <use x="300" xlink:href="#SimSun-20"/>
      <use x="350" xlink:href="#SimSun-53"/>
      <use x="400" xlink:href="#SimSun-5a"/>
      <use x="450" xlink:href="#SimSun-53"/>
      <use x="500" xlink:href="#SimSun-43"/>
     </g>
    </g>
    <g id="PathCollection_8">
     <g>
      <use style="fill:#ff7f0e;stroke:#ff7f0e;" x="630" xlink:href="#m16102f3196" y="100.369688"/>
     </g>
    </g>
    <g id="text_33">
     <!-- After SZSC -->
     <g transform="translate(662.4 105.094688)scale(0.18 -0.18)">
      <use xlink:href="#SimSun-41"/>
      <use x="50" xlink:href="#SimSun-66"/>
      <use x="100" xlink:href="#SimSun-74"/>
      <use x="150" xlink:href="#SimSun-65"/>
      <use x="200" xlink:href="#SimSun-72"/>
      <use x="250" xlink:href="#SimSun-20"/>
      <use x="300" xlink:href="#SimSun-53"/>
      <use x="350" xlink:href="#SimSun-5a"/>
      <use x="400" xlink:href="#SimSun-53"/>
      <use x="450" xlink:href="#SimSun-43"/>
     </g>
    </g>
   </g>
  </g>
 </g>
 <defs>
  <clipPath id="pcdeb828a4e">
   <rect height="326.16" width="301.621622" x="108" y="51.84"/>
  </clipPath>
  <clipPath id="p2ecd515302">
   <rect height="326.16" width="301.621622" x="475.978378" y="51.84"/>
  </clipPath>
 </defs>
</svg>
